<?xml version="1.0" encoding="iso-8859-1"?>
<!-- Uploaded to: SVG Repo, www.svgrepo.com, Generator: SVG Repo Mixer Tools -->
<svg fill="#000000" height="800px" width="800px" version="1.1" id="Layer_1" xmlns="http://www.w3.org/2000/svg" xmlns:xlink="http://www.w3.org/1999/xlink" 
	 viewBox="0 0 512 512" xml:space="preserve">
<g>
	<g>
		<path d="M438.714,0H73.286c-5.545,0-10.039,4.495-10.039,10.039v491.922c0,5.544,4.495,10.039,10.039,10.039h365.427
			c5.545,0,10.039-4.496,10.039-10.039V10.039C448.753,4.495,444.258,0,438.714,0z M428.675,491.922H83.325V20.078h345.349V491.922z
			"/>
	</g>
</g>
<g>
	<g>
		<path d="M184.722,310.987h-22.086c-5.545,0-10.039,4.496-10.039,10.039c0,5.545,4.495,10.039,10.039,10.039h22.086
			c5.545,0,10.039-4.496,10.039-10.039C194.761,315.482,190.266,310.987,184.722,310.987z"/>
	</g>
</g>
<g>
	<g>
		<path d="M349.365,310.987H216.847c-5.545,0-10.039,4.496-10.039,10.039c0,5.544,4.495,10.039,10.039,10.039h132.518
			c5.545,0,10.039-4.496,10.039-10.039C359.404,315.482,354.909,310.987,349.365,310.987z"/>
	</g>
</g>
<g>
	<g>
		<path d="M184.722,359.175h-22.086c-5.545,0-10.039,4.496-10.039,10.039c0,5.545,4.495,10.039,10.039,10.039h22.086
			c5.545,0,10.039-4.496,10.039-10.039C194.761,363.671,190.266,359.175,184.722,359.175z"/>
	</g>
</g>
<g>
	<g>
		<path d="M349.365,359.175H216.847c-5.545,0-10.039,4.496-10.039,10.039c0,5.544,4.495,10.039,10.039,10.039h132.518
			c5.545,0,10.039-4.496,10.039-10.039C359.404,363.671,354.909,359.175,349.365,359.175z"/>
	</g>
</g>
<g>
	<g>
		<path d="M256,106.362c-46.5,0-84.329,37.83-84.329,84.329S209.5,275.02,256,275.02s84.329-37.83,84.329-84.329
			S302.5,106.362,256,106.362z M256,254.942c-35.428,0-64.251-28.824-64.251-64.251c0-35.427,28.823-64.251,64.251-64.251
			c35.428,0,64.251,28.823,64.251,64.251C320.251,226.118,291.428,254.942,256,254.942z"/>
	</g>
</g>
<g>
	<g>
		<path d="M292.141,183.436h-26.102v-26.102c0-5.545-4.495-10.039-10.039-10.039c-5.545,0-10.039,4.495-10.039,10.039v26.102
			h-26.102c-5.545,0-10.039,4.495-10.039,10.039c0,5.545,4.495,10.039,10.039,10.039h26.102v26.102
			c0,5.545,4.495,10.039,10.039,10.039c5.545,0,10.039-4.495,10.039-10.039v-26.102h26.102c5.545,0,10.039-4.495,10.039-10.039
			C302.18,187.93,297.686,183.436,292.141,183.436z"/>
	</g>
</g>
</svg>